<svg width="256" height="256" viewBox="0 0 256 256" fill="none" xmlns="http://www.w3.org/2000/svg">
<path d="M116 36V20C116 16.8174 117.264 13.7652 119.515 11.5147C121.765 9.26428 124.817 8 128 8C131.183 8 134.235 9.26428 136.485 11.5147C138.736 13.7652 140 16.8174 140 20V36C140 39.1826 138.736 42.2348 136.485 44.4853C134.235 46.7357 131.183 48 128 48C124.817 48 121.765 46.7357 119.515 44.4853C117.264 42.2348 116 39.1826 116 36ZM196 128C196 141.449 192.012 154.596 184.54 165.779C177.068 176.961 166.448 185.677 154.022 190.824C141.597 195.971 127.925 197.317 114.734 194.693C101.543 192.07 89.4267 185.593 79.9167 176.083C70.4068 166.573 63.9304 154.457 61.3066 141.266C58.6828 128.075 60.0294 114.403 65.1762 101.978C70.323 89.5521 79.0387 78.932 90.2212 71.4601C101.404 63.9881 114.551 60 128 60C146.029 60.0185 163.314 67.1887 176.063 79.9372C188.811 92.6857 195.981 109.971 196 128ZM172 128C172 119.298 169.419 110.791 164.585 103.555C159.75 96.3191 152.878 90.6796 144.838 87.3493C136.798 84.019 127.951 83.1477 119.416 84.8455C110.881 86.5432 103.041 90.7338 96.8873 96.8873C90.7338 103.041 86.5432 110.881 84.8455 119.416C83.1477 127.951 84.019 136.798 87.3493 144.838C90.6796 152.878 96.3191 159.75 103.555 164.585C110.791 169.419 119.298 172 128 172C139.665 171.987 150.849 167.347 159.098 159.098C167.347 150.849 171.987 139.665 172 128ZM51.51 68.49C52.6262 69.6062 53.9514 70.4917 55.4098 71.0958C56.8683 71.6999 58.4314 72.0108 60.01 72.0108C61.5886 72.0108 63.1517 71.6999 64.6102 71.0958C66.0686 70.4917 67.3938 69.6062 68.51 68.49C69.6262 67.3738 70.5117 66.0486 71.1158 64.5902C71.7199 63.1317 72.0308 61.5686 72.0308 59.99C72.0308 58.4114 71.7199 56.8483 71.1158 55.3898C70.5117 53.9314 69.6262 52.6062 68.51 51.49L56.51 39.49C54.2557 37.2357 51.1981 35.9692 48.01 35.9692C44.8219 35.9692 41.7643 37.2357 39.51 39.49C37.2557 41.7443 35.9892 44.8019 35.9892 47.99C35.9892 51.1781 37.2557 54.2357 39.51 56.49L51.51 68.49ZM51.51 187.49L39.51 199.49C38.3938 200.606 37.5083 201.931 36.9042 203.39C36.3001 204.848 35.9892 206.411 35.9892 207.99C35.9892 209.569 36.3001 211.132 36.9042 212.59C37.5083 214.049 38.3938 215.374 39.51 216.49C41.7643 218.744 44.8219 220.011 48.01 220.011C49.5886 220.011 51.1517 219.7 52.6102 219.096C54.0686 218.492 55.3938 217.606 56.51 216.49L68.51 204.49C70.7643 202.236 72.0308 199.178 72.0308 195.99C72.0308 192.802 70.7643 189.744 68.51 187.49C66.2557 185.236 63.1981 183.969 60.01 183.969C56.8219 183.969 53.7643 185.236 51.51 187.49ZM196 72C197.576 72.0012 199.137 71.6919 200.594 71.0896C202.051 70.4874 203.375 69.604 204.49 68.49L216.49 56.49C217.606 55.3738 218.492 54.0486 219.096 52.5902C219.7 51.1317 220.011 49.5686 220.011 47.99C220.011 46.4114 219.7 44.8483 219.096 43.3898C218.492 41.9314 217.606 40.6062 216.49 39.49C215.374 38.3738 214.049 37.4883 212.59 36.8842C211.132 36.2801 209.569 35.9692 207.99 35.9692C206.411 35.9692 204.848 36.2801 203.39 36.8842C201.931 37.4883 200.606 38.3738 199.49 39.49L187.49 51.49C185.802 53.1684 184.651 55.311 184.184 57.6453C183.717 59.9796 183.954 62.4001 184.867 64.599C185.779 66.7978 187.325 68.6756 189.307 69.9935C191.29 71.3114 193.619 72.0098 196 72ZM204.49 187.51C202.236 185.256 199.178 183.989 195.99 183.989C192.802 183.989 189.744 185.256 187.49 187.51C185.236 189.764 183.969 192.822 183.969 196.01C183.969 199.198 185.236 202.256 187.49 204.51L199.49 216.51C201.744 218.764 204.802 220.031 207.99 220.031C211.178 220.031 214.236 218.764 216.49 216.51C218.744 214.256 220.011 211.198 220.011 208.01C220.011 204.822 218.744 201.764 216.49 199.51L204.49 187.51ZM48 128C48 124.817 46.7357 121.765 44.4853 119.515C42.2348 117.264 39.1826 116 36 116H20C16.8174 116 13.7652 117.264 11.5147 119.515C9.26428 121.765 8 124.817 8 128C8 131.183 9.26428 134.235 11.5147 136.485C13.7652 138.736 16.8174 140 20 140H36C39.1826 140 42.2348 138.736 44.4853 136.485C46.7357 134.235 48 131.183 48 128ZM128 208C124.817 208 121.765 209.264 119.515 211.515C117.264 213.765 116 216.817 116 220V236C116 239.183 117.264 242.235 119.515 244.485C121.765 246.736 124.817 248 128 248C131.183 248 134.235 246.736 136.485 244.485C138.736 242.235 140 239.183 140 236V220C140 216.817 138.736 213.765 136.485 211.515C134.235 209.264 131.183 208 128 208ZM236 116H220C216.817 116 213.765 117.264 211.515 119.515C209.264 121.765 208 124.817 208 128C208 131.183 209.264 134.235 211.515 136.485C213.765 138.736 216.817 140 220 140H236C239.183 140 242.235 138.736 244.485 136.485C246.736 134.235 248 131.183 248 128C248 124.817 246.736 121.765 244.485 119.515C242.235 117.264 239.183 116 236 116Z" fill="#FFC700"/>
</svg>
